<svg width="21" height="19" viewBox="0 0 21 19" fill="none" xmlns="http://www.w3.org/2000/svg">
<mask id="path-1-outside-1_1_288" maskUnits="userSpaceOnUse" x="0" y="0" width="21" height="19" fill="black">
<rect fill="white" width="21" height="19"/>
<path fill-rule="evenodd" clip-rule="evenodd" d="M17.1764 2.38337C17.1764 2.22093 17.1094 2.06515 16.9902 1.95029C16.871 1.83544 16.7093 1.77091 16.5407 1.77091C16.3721 1.77091 16.2105 1.83544 16.0913 1.95029C15.972 2.06515 15.9051 2.22093 15.9051 2.38337V3.65548C15.9051 3.81792 15.972 3.9737 16.0913 4.08856C16.2105 4.20342 16.3721 4.26794 16.5407 4.26794C16.7093 4.26794 16.871 4.20342 16.9902 4.08856C17.1094 3.9737 17.1764 3.81792 17.1764 3.65548V2.38337ZM11.1357 2.38337C11.1357 2.22093 11.0687 2.06515 10.9495 1.95029C10.8303 1.83544 10.6686 1.77091 10.5 1.77091C10.3314 1.77091 10.1697 1.83544 10.0505 1.95029C9.93132 2.06515 9.86434 2.22093 9.86434 2.38337V3.65548C9.86434 3.81792 9.93132 3.9737 10.0505 4.08856C10.1697 4.20342 10.3314 4.26794 10.5 4.26794C10.6686 4.26794 10.8303 4.20342 10.9495 4.08856C11.0687 3.9737 11.1357 3.81792 11.1357 3.65548V2.38337ZM5.87667 2.64231H9.08154V2.38337C9.08154 2.0209 9.23099 1.67327 9.497 1.41697C9.76301 1.16066 10.1238 1.01667 10.5 1.01667C10.8762 1.01667 11.237 1.16066 11.503 1.41697C11.769 1.67327 11.9185 2.0209 11.9185 2.38337V2.64231H15.1233V2.38337C15.1233 2.0209 15.2728 1.67327 15.5388 1.41697C15.8048 1.16066 16.1656 1.01667 16.5418 1.01667C16.918 1.01667 17.2788 1.16066 17.5448 1.41697C17.8108 1.67327 17.9602 2.0209 17.9602 2.38337V2.64231H18.7483C19.0802 2.64317 19.3981 2.77062 19.6327 2.99678C19.8673 3.22293 19.9993 3.5294 20 3.84913V16.7932C19.9993 17.1131 19.8672 17.4196 19.6324 17.6458C19.3977 17.872 19.0795 17.9994 18.7475 18H2.25273C1.92071 17.9994 1.60246 17.8721 1.36767 17.6459C1.13288 17.4197 1.00067 17.1131 1 16.7932V3.84913C1.00067 3.52926 1.13285 3.22267 1.36759 2.99649C1.60234 2.77031 1.92054 2.64295 2.25252 2.64231H3.0406V2.38337C3.03831 2.2025 3.0733 2.023 3.14356 1.85526C3.21381 1.68752 3.31792 1.53489 3.44985 1.40621C3.58178 1.27753 3.73892 1.17536 3.91214 1.10563C4.08536 1.03591 4.27122 1 4.45895 1C4.64668 1 4.83254 1.03591 5.00576 1.10563C5.17898 1.17536 5.33612 1.27753 5.46805 1.40621C5.59998 1.53489 5.70409 1.68752 5.77434 1.85526C5.8446 2.023 5.87959 2.2025 5.8773 2.38337V2.64231H5.87667ZM5.09556 2.38337C5.09556 2.22093 5.02858 2.06515 4.90938 1.95029C4.79017 1.83544 4.62849 1.77091 4.4599 1.77091C4.29131 1.77091 4.12963 1.83544 4.01042 1.95029C3.89122 2.06515 3.82424 2.22093 3.82424 2.38337V3.65548C3.82424 3.81792 3.89122 3.9737 4.01042 4.08856C4.12963 4.20342 4.29131 4.26794 4.4599 4.26794C4.62849 4.26794 4.79017 4.20342 4.90938 4.08856C5.02858 3.9737 5.09556 3.81792 5.09556 3.65548V2.38337ZM19.217 7.14535H1.78301V16.7932C1.78362 16.913 1.83331 17.0278 1.92126 17.1126C2.00922 17.1973 2.12834 17.2452 2.25273 17.2458H18.7473C18.8717 17.2452 18.9908 17.1973 19.0787 17.1126C19.1667 17.0278 19.2164 16.913 19.217 16.7932V7.14535ZM1.78301 6.39111V3.84852C1.78362 3.72866 1.83331 3.61389 1.92126 3.52914C2.00922 3.44439 2.12834 3.39652 2.25273 3.39593H3.04081V3.65487C3.03852 3.83574 3.07352 4.01524 3.14377 4.18298C3.21402 4.35072 3.31813 4.50335 3.45006 4.63203C3.582 4.76071 3.73913 4.86288 3.91235 4.93261C4.08557 5.00234 4.27143 5.03824 4.45916 5.03824C4.64689 5.03824 4.83275 5.00234 5.00597 4.93261C5.17919 4.86288 5.33633 4.76071 5.46826 4.63203C5.60019 4.50335 5.7043 4.35072 5.77455 4.18298C5.84481 4.01524 5.8798 3.83574 5.87751 3.65487V3.39654H9.08154V3.65548C9.08154 4.01795 9.23099 4.36558 9.497 4.62188C9.76301 4.87819 10.1238 5.02218 10.5 5.02218C10.8762 5.02218 11.237 4.87819 11.503 4.62188C11.769 4.36558 11.9185 4.01795 11.9185 3.65548V3.39654H15.1233V3.65548C15.1233 4.01795 15.2728 4.36558 15.5388 4.62188C15.8048 4.87819 16.1656 5.02218 16.5418 5.02218C16.918 5.02218 17.2788 4.87819 17.5448 4.62188C17.8108 4.36558 17.9602 4.01795 17.9602 3.65548V3.39654H18.7483C18.8727 3.39713 18.9918 3.445 19.0798 3.52975C19.1678 3.6145 19.2174 3.72927 19.218 3.84913V6.39172L1.78301 6.39111ZM5.03412 9.3393H3.80334V10.5254H5.03476V9.3393H5.03412ZM3.41131 8.58507C3.30751 8.58507 3.20795 8.6248 3.13455 8.69552C3.06115 8.76625 3.01991 8.86217 3.01991 8.96219V10.9027C3.01991 11.0027 3.06115 11.0986 3.13455 11.1694C3.20795 11.2401 3.30751 11.2798 3.41131 11.2798H5.42552C5.52929 11.2798 5.62879 11.24 5.70215 11.1693C5.7755 11.0986 5.81671 11.0027 5.81671 10.9027V8.96219C5.81671 8.8622 5.7755 8.76631 5.70215 8.6956C5.62879 8.62488 5.52929 8.58512 5.42552 8.58507H3.41131ZM9.06233 9.3393H7.83156V10.5254H9.06297V9.3393H9.06233ZM7.43952 8.58507C7.33572 8.58507 7.23616 8.6248 7.16276 8.69552C7.08936 8.76625 7.04812 8.86217 7.04812 8.96219V10.9027C7.04812 11.0027 7.08936 11.0986 7.16276 11.1694C7.23616 11.2401 7.33572 11.2798 7.43952 11.2798H9.45373C9.50517 11.2799 9.55611 11.2702 9.60365 11.2512C9.65118 11.2323 9.69438 11.2045 9.73077 11.1695C9.76716 11.1345 9.79603 11.0929 9.81572 11.0471C9.83542 11.0013 9.84556 10.9523 9.84556 10.9027V8.96219C9.84556 8.8622 9.80435 8.76631 9.73099 8.6956C9.65764 8.62488 9.55814 8.58512 9.45437 8.58507H7.43952ZM13.0905 9.3393H11.8598V10.5254H13.0912V9.3393H13.0905ZM11.4677 8.58507C11.3639 8.58507 11.2644 8.6248 11.191 8.69552C11.1176 8.76625 11.0763 8.86217 11.0763 8.96219V10.9027C11.0763 11.0027 11.1176 11.0986 11.191 11.1694C11.2644 11.2401 11.3639 11.2798 11.4677 11.2798H13.4819C13.5857 11.2798 13.6853 11.24 13.7586 11.1693C13.832 11.0986 13.8733 11.0027 13.8733 10.9027V8.96219C13.8733 8.86218 13.832 8.76629 13.7586 8.69558C13.6853 8.62487 13.5857 8.58512 13.4819 8.58507H11.4677ZM17.1188 9.3393H15.888V10.5254H17.1194V9.3393H17.1188ZM15.4959 8.58507C15.3921 8.58507 15.2926 8.6248 15.2192 8.69552C15.1458 8.76625 15.1045 8.86217 15.1045 8.96219V10.9027C15.1045 11.0027 15.1458 11.0986 15.2192 11.1694C15.2926 11.2401 15.3921 11.2798 15.4959 11.2798H17.5102C17.6139 11.2798 17.7135 11.24 17.7869 11.1693C17.8602 11.0986 17.9015 11.0027 17.9016 10.9027V8.96219C17.9015 8.86218 17.8602 8.76629 17.7869 8.69558C17.7135 8.62487 17.6139 8.58512 17.5102 8.58507H15.4959ZM5.03412 13.8126H3.80334V14.9991H5.03476V13.8116L5.03412 13.8126ZM3.41131 13.0586C3.30791 13.0588 3.20877 13.0984 3.13555 13.1687C3.06234 13.2391 3.02099 13.3345 3.02054 13.4341V15.3748C3.02041 15.4244 3.03043 15.4736 3.05003 15.5194C3.06964 15.5653 3.09845 15.607 3.13481 15.6421C3.17117 15.6773 3.21436 15.7051 3.26192 15.7241C3.30947 15.7432 3.36046 15.753 3.41194 15.753H5.42616C5.52992 15.7529 5.62942 15.7131 5.70278 15.6424C5.77614 15.5717 5.81734 15.4758 5.81734 15.3758V13.4341C5.81734 13.3341 5.77613 13.2383 5.70277 13.1676C5.62941 13.0969 5.52991 13.0572 5.42616 13.0572L3.41131 13.0586ZM9.06233 13.8126H7.83156V14.9991H9.06297V13.8116L9.06233 13.8126ZM7.43952 13.0586C7.33612 13.0588 7.23698 13.0984 7.16376 13.1687C7.09055 13.2391 7.0492 13.3345 7.04876 13.4341V15.3748C7.04862 15.4244 7.05864 15.4736 7.07825 15.5194C7.09785 15.5653 7.12666 15.607 7.16302 15.6421C7.19938 15.6773 7.24257 15.7051 7.29013 15.7241C7.33769 15.7432 7.38867 15.753 7.44016 15.753H9.45437C9.5058 15.7529 9.55673 15.7431 9.60423 15.7241C9.65173 15.7051 9.69489 15.6773 9.73122 15.6422C9.76755 15.6071 9.79634 15.5655 9.81596 15.5197C9.83558 15.4739 9.84564 15.4248 9.84556 15.3752V13.4341C9.84556 13.3341 9.80434 13.2383 9.73098 13.1676C9.65762 13.0969 9.55812 13.0572 9.45437 13.0572L7.43952 13.0586ZM13.0905 13.8126H11.8598V14.9991H13.0912V13.8116L13.0905 13.8126ZM11.4677 13.0586C11.3643 13.0588 11.2652 13.0984 11.192 13.1687C11.1188 13.2391 11.0774 13.3345 11.077 13.4341V15.3748C11.0768 15.4244 11.0868 15.4736 11.1065 15.5194C11.1261 15.5653 11.1549 15.607 11.1912 15.6421C11.2276 15.6773 11.2708 15.7051 11.3183 15.7241C11.3659 15.7432 11.4169 15.753 11.4684 15.753H13.4826C13.5864 15.7529 13.6859 15.7132 13.7593 15.6424C13.8327 15.5717 13.8739 15.4758 13.874 15.3758V13.4341C13.8739 13.3341 13.8327 13.2383 13.7593 13.1676C13.6859 13.0969 13.5863 13.0572 13.4826 13.0572L11.4677 13.0586Z"/>
</mask>
<path fill-rule="evenodd" clip-rule="evenodd" d="M17.1764 2.38337C17.1764 2.22093 17.1094 2.06515 16.9902 1.95029C16.871 1.83544 16.7093 1.77091 16.5407 1.77091C16.3721 1.77091 16.2105 1.83544 16.0913 1.95029C15.972 2.06515 15.9051 2.22093 15.9051 2.38337V3.65548C15.9051 3.81792 15.972 3.9737 16.0913 4.08856C16.2105 4.20342 16.3721 4.26794 16.5407 4.26794C16.7093 4.26794 16.871 4.20342 16.9902 4.08856C17.1094 3.9737 17.1764 3.81792 17.1764 3.65548V2.38337ZM11.1357 2.38337C11.1357 2.22093 11.0687 2.06515 10.9495 1.95029C10.8303 1.83544 10.6686 1.77091 10.5 1.77091C10.3314 1.77091 10.1697 1.83544 10.0505 1.95029C9.93132 2.06515 9.86434 2.22093 9.86434 2.38337V3.65548C9.86434 3.81792 9.93132 3.9737 10.0505 4.08856C10.1697 4.20342 10.3314 4.26794 10.5 4.26794C10.6686 4.26794 10.8303 4.20342 10.9495 4.08856C11.0687 3.9737 11.1357 3.81792 11.1357 3.65548V2.38337ZM5.87667 2.64231H9.08154V2.38337C9.08154 2.0209 9.23099 1.67327 9.497 1.41697C9.76301 1.16066 10.1238 1.01667 10.5 1.01667C10.8762 1.01667 11.237 1.16066 11.503 1.41697C11.769 1.67327 11.9185 2.0209 11.9185 2.38337V2.64231H15.1233V2.38337C15.1233 2.0209 15.2728 1.67327 15.5388 1.41697C15.8048 1.16066 16.1656 1.01667 16.5418 1.01667C16.918 1.01667 17.2788 1.16066 17.5448 1.41697C17.8108 1.67327 17.9602 2.0209 17.9602 2.38337V2.64231H18.7483C19.0802 2.64317 19.3981 2.77062 19.6327 2.99678C19.8673 3.22293 19.9993 3.5294 20 3.84913V16.7932C19.9993 17.1131 19.8672 17.4196 19.6324 17.6458C19.3977 17.872 19.0795 17.9994 18.7475 18H2.25273C1.92071 17.9994 1.60246 17.8721 1.36767 17.6459C1.13288 17.4197 1.00067 17.1131 1 16.7932V3.84913C1.00067 3.52926 1.13285 3.22267 1.36759 2.99649C1.60234 2.77031 1.92054 2.64295 2.25252 2.64231H3.0406V2.38337C3.03831 2.2025 3.0733 2.023 3.14356 1.85526C3.21381 1.68752 3.31792 1.53489 3.44985 1.40621C3.58178 1.27753 3.73892 1.17536 3.91214 1.10563C4.08536 1.03591 4.27122 1 4.45895 1C4.64668 1 4.83254 1.03591 5.00576 1.10563C5.17898 1.17536 5.33612 1.27753 5.46805 1.40621C5.59998 1.53489 5.70409 1.68752 5.77434 1.85526C5.8446 2.023 5.87959 2.2025 5.8773 2.38337V2.64231H5.87667ZM5.09556 2.38337C5.09556 2.22093 5.02858 2.06515 4.90938 1.95029C4.79017 1.83544 4.62849 1.77091 4.4599 1.77091C4.29131 1.77091 4.12963 1.83544 4.01042 1.95029C3.89122 2.06515 3.82424 2.22093 3.82424 2.38337V3.65548C3.82424 3.81792 3.89122 3.9737 4.01042 4.08856C4.12963 4.20342 4.29131 4.26794 4.4599 4.26794C4.62849 4.26794 4.79017 4.20342 4.90938 4.08856C5.02858 3.9737 5.09556 3.81792 5.09556 3.65548V2.38337ZM19.217 7.14535H1.78301V16.7932C1.78362 16.913 1.83331 17.0278 1.92126 17.1126C2.00922 17.1973 2.12834 17.2452 2.25273 17.2458H18.7473C18.8717 17.2452 18.9908 17.1973 19.0787 17.1126C19.1667 17.0278 19.2164 16.913 19.217 16.7932V7.14535ZM1.78301 6.39111V3.84852C1.78362 3.72866 1.83331 3.61389 1.92126 3.52914C2.00922 3.44439 2.12834 3.39652 2.25273 3.39593H3.04081V3.65487C3.03852 3.83574 3.07352 4.01524 3.14377 4.18298C3.21402 4.35072 3.31813 4.50335 3.45006 4.63203C3.582 4.76071 3.73913 4.86288 3.91235 4.93261C4.08557 5.00234 4.27143 5.03824 4.45916 5.03824C4.64689 5.03824 4.83275 5.00234 5.00597 4.93261C5.17919 4.86288 5.33633 4.76071 5.46826 4.63203C5.60019 4.50335 5.7043 4.35072 5.77455 4.18298C5.84481 4.01524 5.8798 3.83574 5.87751 3.65487V3.39654H9.08154V3.65548C9.08154 4.01795 9.23099 4.36558 9.497 4.62188C9.76301 4.87819 10.1238 5.02218 10.5 5.02218C10.8762 5.02218 11.237 4.87819 11.503 4.62188C11.769 4.36558 11.9185 4.01795 11.9185 3.65548V3.39654H15.1233V3.65548C15.1233 4.01795 15.2728 4.36558 15.5388 4.62188C15.8048 4.87819 16.1656 5.02218 16.5418 5.02218C16.918 5.02218 17.2788 4.87819 17.5448 4.62188C17.8108 4.36558 17.9602 4.01795 17.9602 3.65548V3.39654H18.7483C18.8727 3.39713 18.9918 3.445 19.0798 3.52975C19.1678 3.6145 19.2174 3.72927 19.218 3.84913V6.39172L1.78301 6.39111ZM5.03412 9.3393H3.80334V10.5254H5.03476V9.3393H5.03412ZM3.41131 8.58507C3.30751 8.58507 3.20795 8.6248 3.13455 8.69552C3.06115 8.76625 3.01991 8.86217 3.01991 8.96219V10.9027C3.01991 11.0027 3.06115 11.0986 3.13455 11.1694C3.20795 11.2401 3.30751 11.2798 3.41131 11.2798H5.42552C5.52929 11.2798 5.62879 11.24 5.70215 11.1693C5.7755 11.0986 5.81671 11.0027 5.81671 10.9027V8.96219C5.81671 8.8622 5.7755 8.76631 5.70215 8.6956C5.62879 8.62488 5.52929 8.58512 5.42552 8.58507H3.41131ZM9.06233 9.3393H7.83156V10.5254H9.06297V9.3393H9.06233ZM7.43952 8.58507C7.33572 8.58507 7.23616 8.6248 7.16276 8.69552C7.08936 8.76625 7.04812 8.86217 7.04812 8.96219V10.9027C7.04812 11.0027 7.08936 11.0986 7.16276 11.1694C7.23616 11.2401 7.33572 11.2798 7.43952 11.2798H9.45373C9.50517 11.2799 9.55611 11.2702 9.60365 11.2512C9.65118 11.2323 9.69438 11.2045 9.73077 11.1695C9.76716 11.1345 9.79603 11.0929 9.81572 11.0471C9.83542 11.0013 9.84556 10.9523 9.84556 10.9027V8.96219C9.84556 8.8622 9.80435 8.76631 9.73099 8.6956C9.65764 8.62488 9.55814 8.58512 9.45437 8.58507H7.43952ZM13.0905 9.3393H11.8598V10.5254H13.0912V9.3393H13.0905ZM11.4677 8.58507C11.3639 8.58507 11.2644 8.6248 11.191 8.69552C11.1176 8.76625 11.0763 8.86217 11.0763 8.96219V10.9027C11.0763 11.0027 11.1176 11.0986 11.191 11.1694C11.2644 11.2401 11.3639 11.2798 11.4677 11.2798H13.4819C13.5857 11.2798 13.6853 11.24 13.7586 11.1693C13.832 11.0986 13.8733 11.0027 13.8733 10.9027V8.96219C13.8733 8.86218 13.832 8.76629 13.7586 8.69558C13.6853 8.62487 13.5857 8.58512 13.4819 8.58507H11.4677ZM17.1188 9.3393H15.888V10.5254H17.1194V9.3393H17.1188ZM15.4959 8.58507C15.3921 8.58507 15.2926 8.6248 15.2192 8.69552C15.1458 8.76625 15.1045 8.86217 15.1045 8.96219V10.9027C15.1045 11.0027 15.1458 11.0986 15.2192 11.1694C15.2926 11.2401 15.3921 11.2798 15.4959 11.2798H17.5102C17.6139 11.2798 17.7135 11.24 17.7869 11.1693C17.8602 11.0986 17.9015 11.0027 17.9016 10.9027V8.96219C17.9015 8.86218 17.8602 8.76629 17.7869 8.69558C17.7135 8.62487 17.6139 8.58512 17.5102 8.58507H15.4959ZM5.03412 13.8126H3.80334V14.9991H5.03476V13.8116L5.03412 13.8126ZM3.41131 13.0586C3.30791 13.0588 3.20877 13.0984 3.13555 13.1687C3.06234 13.2391 3.02099 13.3345 3.02054 13.4341V15.3748C3.02041 15.4244 3.03043 15.4736 3.05003 15.5194C3.06964 15.5653 3.09845 15.607 3.13481 15.6421C3.17117 15.6773 3.21436 15.7051 3.26192 15.7241C3.30947 15.7432 3.36046 15.753 3.41194 15.753H5.42616C5.52992 15.7529 5.62942 15.7131 5.70278 15.6424C5.77614 15.5717 5.81734 15.4758 5.81734 15.3758V13.4341C5.81734 13.3341 5.77613 13.2383 5.70277 13.1676C5.62941 13.0969 5.52991 13.0572 5.42616 13.0572L3.41131 13.0586ZM9.06233 13.8126H7.83156V14.9991H9.06297V13.8116L9.06233 13.8126ZM7.43952 13.0586C7.33612 13.0588 7.23698 13.0984 7.16376 13.1687C7.09055 13.2391 7.0492 13.3345 7.04876 13.4341V15.3748C7.04862 15.4244 7.05864 15.4736 7.07825 15.5194C7.09785 15.5653 7.12666 15.607 7.16302 15.6421C7.19938 15.6773 7.24257 15.7051 7.29013 15.7241C7.33769 15.7432 7.38867 15.753 7.44016 15.753H9.45437C9.5058 15.7529 9.55673 15.7431 9.60423 15.7241C9.65173 15.7051 9.69489 15.6773 9.73122 15.6422C9.76755 15.6071 9.79634 15.5655 9.81596 15.5197C9.83558 15.4739 9.84564 15.4248 9.84556 15.3752V13.4341C9.84556 13.3341 9.80434 13.2383 9.73098 13.1676C9.65762 13.0969 9.55812 13.0572 9.45437 13.0572L7.43952 13.0586ZM13.0905 13.8126H11.8598V14.9991H13.0912V13.8116L13.0905 13.8126ZM11.4677 13.0586C11.3643 13.0588 11.2652 13.0984 11.192 13.1687C11.1188 13.2391 11.0774 13.3345 11.077 13.4341V15.3748C11.0768 15.4244 11.0868 15.4736 11.1065 15.5194C11.1261 15.5653 11.1549 15.607 11.1912 15.6421C11.2276 15.6773 11.2708 15.7051 11.3183 15.7241C11.3659 15.7432 11.4169 15.753 11.4684 15.753H13.4826C13.5864 15.7529 13.6859 15.7132 13.7593 15.6424C13.8327 15.5717 13.8739 15.4758 13.874 15.3758V13.4341C13.8739 13.3341 13.8327 13.2383 13.7593 13.1676C13.6859 13.0969 13.5863 13.0572 13.4826 13.0572L11.4677 13.0586Z" fill="#FE520B"/>
<path fill-rule="evenodd" clip-rule="evenodd" d="M17.1764 2.38337C17.1764 2.22093 17.1094 2.06515 16.9902 1.95029C16.871 1.83544 16.7093 1.77091 16.5407 1.77091C16.3721 1.77091 16.2105 1.83544 16.0913 1.95029C15.972 2.06515 15.9051 2.22093 15.9051 2.38337V3.65548C15.9051 3.81792 15.972 3.9737 16.0913 4.08856C16.2105 4.20342 16.3721 4.26794 16.5407 4.26794C16.7093 4.26794 16.871 4.20342 16.9902 4.08856C17.1094 3.9737 17.1764 3.81792 17.1764 3.65548V2.38337ZM11.1357 2.38337C11.1357 2.22093 11.0687 2.06515 10.9495 1.95029C10.8303 1.83544 10.6686 1.77091 10.5 1.77091C10.3314 1.77091 10.1697 1.83544 10.0505 1.95029C9.93132 2.06515 9.86434 2.22093 9.86434 2.38337V3.65548C9.86434 3.81792 9.93132 3.9737 10.0505 4.08856C10.1697 4.20342 10.3314 4.26794 10.5 4.26794C10.6686 4.26794 10.8303 4.20342 10.9495 4.08856C11.0687 3.9737 11.1357 3.81792 11.1357 3.65548V2.38337ZM5.87667 2.64231H9.08154V2.38337C9.08154 2.0209 9.23099 1.67327 9.497 1.41697C9.76301 1.16066 10.1238 1.01667 10.5 1.01667C10.8762 1.01667 11.237 1.16066 11.503 1.41697C11.769 1.67327 11.9185 2.0209 11.9185 2.38337V2.64231H15.1233V2.38337C15.1233 2.0209 15.2728 1.67327 15.5388 1.41697C15.8048 1.16066 16.1656 1.01667 16.5418 1.01667C16.918 1.01667 17.2788 1.16066 17.5448 1.41697C17.8108 1.67327 17.9602 2.0209 17.9602 2.38337V2.64231H18.7483C19.0802 2.64317 19.3981 2.77062 19.6327 2.99678C19.8673 3.22293 19.9993 3.5294 20 3.84913V16.7932C19.9993 17.1131 19.8672 17.4196 19.6324 17.6458C19.3977 17.872 19.0795 17.9994 18.7475 18H2.25273C1.92071 17.9994 1.60246 17.8721 1.36767 17.6459C1.13288 17.4197 1.00067 17.1131 1 16.7932V3.84913C1.00067 3.52926 1.13285 3.22267 1.36759 2.99649C1.60234 2.77031 1.92054 2.64295 2.25252 2.64231H3.0406V2.38337C3.03831 2.2025 3.0733 2.023 3.14356 1.85526C3.21381 1.68752 3.31792 1.53489 3.44985 1.40621C3.58178 1.27753 3.73892 1.17536 3.91214 1.10563C4.08536 1.03591 4.27122 1 4.45895 1C4.64668 1 4.83254 1.03591 5.00576 1.10563C5.17898 1.17536 5.33612 1.27753 5.46805 1.40621C5.59998 1.53489 5.70409 1.68752 5.77434 1.85526C5.8446 2.023 5.87959 2.2025 5.8773 2.38337V2.64231H5.87667ZM5.09556 2.38337C5.09556 2.22093 5.02858 2.06515 4.90938 1.95029C4.79017 1.83544 4.62849 1.77091 4.4599 1.77091C4.29131 1.77091 4.12963 1.83544 4.01042 1.95029C3.89122 2.06515 3.82424 2.22093 3.82424 2.38337V3.65548C3.82424 3.81792 3.89122 3.9737 4.01042 4.08856C4.12963 4.20342 4.29131 4.26794 4.4599 4.26794C4.62849 4.26794 4.79017 4.20342 4.90938 4.08856C5.02858 3.9737 5.09556 3.81792 5.09556 3.65548V2.38337ZM19.217 7.14535H1.78301V16.7932C1.78362 16.913 1.83331 17.0278 1.92126 17.1126C2.00922 17.1973 2.12834 17.2452 2.25273 17.2458H18.7473C18.8717 17.2452 18.9908 17.1973 19.0787 17.1126C19.1667 17.0278 19.2164 16.913 19.217 16.7932V7.14535ZM1.78301 6.39111V3.84852C1.78362 3.72866 1.83331 3.61389 1.92126 3.52914C2.00922 3.44439 2.12834 3.39652 2.25273 3.39593H3.04081V3.65487C3.03852 3.83574 3.07352 4.01524 3.14377 4.18298C3.21402 4.35072 3.31813 4.50335 3.45006 4.63203C3.582 4.76071 3.73913 4.86288 3.91235 4.93261C4.08557 5.00234 4.27143 5.03824 4.45916 5.03824C4.64689 5.03824 4.83275 5.00234 5.00597 4.93261C5.17919 4.86288 5.33633 4.76071 5.46826 4.63203C5.60019 4.50335 5.7043 4.35072 5.77455 4.18298C5.84481 4.01524 5.8798 3.83574 5.87751 3.65487V3.39654H9.08154V3.65548C9.08154 4.01795 9.23099 4.36558 9.497 4.62188C9.76301 4.87819 10.1238 5.02218 10.5 5.02218C10.8762 5.02218 11.237 4.87819 11.503 4.62188C11.769 4.36558 11.9185 4.01795 11.9185 3.65548V3.39654H15.1233V3.65548C15.1233 4.01795 15.2728 4.36558 15.5388 4.62188C15.8048 4.87819 16.1656 5.02218 16.5418 5.02218C16.918 5.02218 17.2788 4.87819 17.5448 4.62188C17.8108 4.36558 17.9602 4.01795 17.9602 3.65548V3.39654H18.7483C18.8727 3.39713 18.9918 3.445 19.0798 3.52975C19.1678 3.6145 19.2174 3.72927 19.218 3.84913V6.39172L1.78301 6.39111ZM5.03412 9.3393H3.80334V10.5254H5.03476V9.3393H5.03412ZM3.41131 8.58507C3.30751 8.58507 3.20795 8.6248 3.13455 8.69552C3.06115 8.76625 3.01991 8.86217 3.01991 8.96219V10.9027C3.01991 11.0027 3.06115 11.0986 3.13455 11.1694C3.20795 11.2401 3.30751 11.2798 3.41131 11.2798H5.42552C5.52929 11.2798 5.62879 11.24 5.70215 11.1693C5.7755 11.0986 5.81671 11.0027 5.81671 10.9027V8.96219C5.81671 8.8622 5.7755 8.76631 5.70215 8.6956C5.62879 8.62488 5.52929 8.58512 5.42552 8.58507H3.41131ZM9.06233 9.3393H7.83156V10.5254H9.06297V9.3393H9.06233ZM7.43952 8.58507C7.33572 8.58507 7.23616 8.6248 7.16276 8.69552C7.08936 8.76625 7.04812 8.86217 7.04812 8.96219V10.9027C7.04812 11.0027 7.08936 11.0986 7.16276 11.1694C7.23616 11.2401 7.33572 11.2798 7.43952 11.2798H9.45373C9.50517 11.2799 9.55611 11.2702 9.60365 11.2512C9.65118 11.2323 9.69438 11.2045 9.73077 11.1695C9.76716 11.1345 9.79603 11.0929 9.81572 11.0471C9.83542 11.0013 9.84556 10.9523 9.84556 10.9027V8.96219C9.84556 8.8622 9.80435 8.76631 9.73099 8.6956C9.65764 8.62488 9.55814 8.58512 9.45437 8.58507H7.43952ZM13.0905 9.3393H11.8598V10.5254H13.0912V9.3393H13.0905ZM11.4677 8.58507C11.3639 8.58507 11.2644 8.6248 11.191 8.69552C11.1176 8.76625 11.0763 8.86217 11.0763 8.96219V10.9027C11.0763 11.0027 11.1176 11.0986 11.191 11.1694C11.2644 11.2401 11.3639 11.2798 11.4677 11.2798H13.4819C13.5857 11.2798 13.6853 11.24 13.7586 11.1693C13.832 11.0986 13.8733 11.0027 13.8733 10.9027V8.96219C13.8733 8.86218 13.832 8.76629 13.7586 8.69558C13.6853 8.62487 13.5857 8.58512 13.4819 8.58507H11.4677ZM17.1188 9.3393H15.888V10.5254H17.1194V9.3393H17.1188ZM15.4959 8.58507C15.3921 8.58507 15.2926 8.6248 15.2192 8.69552C15.1458 8.76625 15.1045 8.86217 15.1045 8.96219V10.9027C15.1045 11.0027 15.1458 11.0986 15.2192 11.1694C15.2926 11.2401 15.3921 11.2798 15.4959 11.2798H17.5102C17.6139 11.2798 17.7135 11.24 17.7869 11.1693C17.8602 11.0986 17.9015 11.0027 17.9016 10.9027V8.96219C17.9015 8.86218 17.8602 8.76629 17.7869 8.69558C17.7135 8.62487 17.6139 8.58512 17.5102 8.58507H15.4959ZM5.03412 13.8126H3.80334V14.9991H5.03476V13.8116L5.03412 13.8126ZM3.41131 13.0586C3.30791 13.0588 3.20877 13.0984 3.13555 13.1687C3.06234 13.2391 3.02099 13.3345 3.02054 13.4341V15.3748C3.02041 15.4244 3.03043 15.4736 3.05003 15.5194C3.06964 15.5653 3.09845 15.607 3.13481 15.6421C3.17117 15.6773 3.21436 15.7051 3.26192 15.7241C3.30947 15.7432 3.36046 15.753 3.41194 15.753H5.42616C5.52992 15.7529 5.62942 15.7131 5.70278 15.6424C5.77614 15.5717 5.81734 15.4758 5.81734 15.3758V13.4341C5.81734 13.3341 5.77613 13.2383 5.70277 13.1676C5.62941 13.0969 5.52991 13.0572 5.42616 13.0572L3.41131 13.0586ZM9.06233 13.8126H7.83156V14.9991H9.06297V13.8116L9.06233 13.8126ZM7.43952 13.0586C7.33612 13.0588 7.23698 13.0984 7.16376 13.1687C7.09055 13.2391 7.0492 13.3345 7.04876 13.4341V15.3748C7.04862 15.4244 7.05864 15.4736 7.07825 15.5194C7.09785 15.5653 7.12666 15.607 7.16302 15.6421C7.19938 15.6773 7.24257 15.7051 7.29013 15.7241C7.33769 15.7432 7.38867 15.753 7.44016 15.753H9.45437C9.5058 15.7529 9.55673 15.7431 9.60423 15.7241C9.65173 15.7051 9.69489 15.6773 9.73122 15.6422C9.76755 15.6071 9.79634 15.5655 9.81596 15.5197C9.83558 15.4739 9.84564 15.4248 9.84556 15.3752V13.4341C9.84556 13.3341 9.80434 13.2383 9.73098 13.1676C9.65762 13.0969 9.55812 13.0572 9.45437 13.0572L7.43952 13.0586ZM13.0905 13.8126H11.8598V14.9991H13.0912V13.8116L13.0905 13.8126ZM11.4677 13.0586C11.3643 13.0588 11.2652 13.0984 11.192 13.1687C11.1188 13.2391 11.0774 13.3345 11.077 13.4341V15.3748C11.0768 15.4244 11.0868 15.4736 11.1065 15.5194C11.1261 15.5653 11.1549 15.607 11.1912 15.6421C11.2276 15.6773 11.2708 15.7051 11.3183 15.7241C11.3659 15.7432 11.4169 15.753 11.4684 15.753H13.4826C13.5864 15.7529 13.6859 15.7132 13.7593 15.6424C13.8327 15.5717 13.8739 15.4758 13.874 15.3758V13.4341C13.8739 13.3341 13.8327 13.2383 13.7593 13.1676C13.6859 13.0969 13.5863 13.0572 13.4826 13.0572L11.4677 13.0586Z" stroke="#FE520B" stroke-width="0.2" mask="url(#path-1-outside-1_1_288)"/>
</svg>
