<svg width="92" height="62" viewBox="0 0 92 62" fill="none" xmlns="http://www.w3.org/2000/svg">
<path d="M8.97 3.14H8.61C6.83 3.14 5.44 3.59 4.44 4.49C3.46 5.37 2.97 6.94 2.97 9.2C2.97 9.94 3.04 10.46 3.18 10.76C3.32 11.04 3.39 11.2 3.39 11.24C2.31 11.24 1.5 11.02 0.96 10.58C0.44 10.12 0.18 9.37 0.18 8.33C0.18 6.91 0.53 5.62 1.23 4.46C1.93 3.28 3.04 2.33 4.56 1.61C6.1 0.889999 8.05 0.53 10.41 0.53C11.73 0.53 13.15 0.649999 14.67 0.889999C15.95 1.11 17.09 1.22 18.09 1.22C19.37 1.22 20.53 1.01 21.57 0.589999C21.53 1.89 21.2 2.85 20.58 3.47C19.96 4.09 19.04 4.4 17.82 4.4C17.18 4.4 16.54 4.35 15.9 4.25C15.26 4.15 14.35 3.98 13.17 3.74L9.03 23H4.71L8.97 3.14ZM18.0434 23.18C16.9034 23.18 15.9534 22.79 15.1934 22.01C14.4334 21.23 14.0534 20.01 14.0534 18.35C14.0534 16.87 14.3434 15.32 14.9234 13.7C15.5234 12.06 16.4034 10.68 17.5634 9.56C18.7434 8.42 20.1434 7.85 21.7634 7.85C22.5834 7.85 23.1934 7.99 23.5934 8.27C23.9934 8.55 24.1934 8.92 24.1934 9.38V9.59L24.5234 8H28.8434L26.6834 18.2C26.6034 18.5 26.5634 18.82 26.5634 19.16C26.5634 20.02 26.9734 20.45 27.7934 20.45C28.3534 20.45 28.8334 20.19 29.2334 19.67C29.6534 19.15 29.9834 18.47 30.2234 17.63H31.4834C30.7434 19.79 29.8234 21.26 28.7234 22.04C27.6434 22.8 26.5534 23.18 25.4534 23.18C24.6134 23.18 23.9334 22.95 23.4134 22.49C22.9134 22.01 22.6134 21.32 22.5134 20.42C21.9334 21.24 21.2834 21.91 20.5634 22.43C19.8634 22.93 19.0234 23.18 18.0434 23.18ZM19.9934 20.27C20.4934 20.27 20.9834 20.04 21.4634 19.58C21.9634 19.1 22.3034 18.45 22.4834 17.63L23.9234 10.85C23.9234 10.59 23.8234 10.34 23.6234 10.1C23.4234 9.84 23.1134 9.71 22.6934 9.71C21.8934 9.71 21.1734 10.18 20.5334 11.12C19.8934 12.04 19.3934 13.16 19.0334 14.48C18.6734 15.78 18.4934 16.93 18.4934 17.93C18.4934 18.93 18.6334 19.57 18.9134 19.85C19.2134 20.13 19.5734 20.27 19.9934 20.27ZM33.2044 23.18C32.2444 23.18 31.4644 22.88 30.8644 22.28C30.2844 21.68 29.9944 20.78 29.9944 19.58C29.9944 19.08 30.0744 18.43 30.2344 17.63L32.0344 9.2H31.0444L31.2844 8H32.2744L33.1744 3.86L37.6144 3.26L36.5944 8H38.3944L38.1544 9.2H36.3544L34.4344 18.2C34.3544 18.5 34.3144 18.82 34.3144 19.16C34.3144 19.56 34.4044 19.85 34.5844 20.03C34.7844 20.19 35.1044 20.27 35.5444 20.27C36.1244 20.27 36.6644 20.03 37.1644 19.55C37.6644 19.05 38.0244 18.41 38.2444 17.63H39.5044C38.7644 19.79 37.8144 21.26 36.6544 22.04C35.4944 22.8 34.3444 23.18 33.2044 23.18ZM43.2424 6.38C42.5824 6.38 42.0224 6.15 41.5624 5.69C41.1024 5.23 40.8724 4.67 40.8724 4.01C40.8724 3.35 41.1024 2.79 41.5624 2.33C42.0224 1.85 42.5824 1.61 43.2424 1.61C43.9024 1.61 44.4624 1.85 44.9224 2.33C45.4024 2.79 45.6424 3.35 45.6424 4.01C45.6424 4.67 45.4024 5.23 44.9224 5.69C44.4624 6.15 43.9024 6.38 43.2424 6.38ZM41.2024 23.18C40.2424 23.18 39.4624 22.88 38.8624 22.28C38.2824 21.68 37.9924 20.78 37.9924 19.58C37.9924 19.08 38.0724 18.43 38.2324 17.63L40.2724 8H44.5924L42.4324 18.2C42.3524 18.5 42.3124 18.82 42.3124 19.16C42.3124 19.56 42.4024 19.85 42.5824 20.03C42.7824 20.19 43.1024 20.27 43.5424 20.27C44.1224 20.27 44.6624 20.03 45.1624 19.55C45.6624 19.05 46.0224 18.41 46.2424 17.63H47.5024C46.7624 19.79 45.8124 21.26 44.6524 22.04C43.4924 22.8 42.3424 23.18 41.2024 23.18ZM49.8305 23.18C48.6905 23.18 47.7405 22.79 46.9805 22.01C46.2205 21.23 45.8405 20.01 45.8405 18.35C45.8405 16.87 46.1305 15.32 46.7105 13.7C47.3105 12.06 48.1905 10.68 49.3505 9.56C50.5305 8.42 51.9305 7.85 53.5505 7.85C54.3705 7.85 54.9805 7.99 55.3805 8.27C55.7805 8.55 55.9805 8.92 55.9805 9.38V9.59L56.3105 8H60.6305L58.4705 18.2C58.3905 18.5 58.3505 18.82 58.3505 19.16C58.3505 20.02 58.7605 20.45 59.5805 20.45C60.1405 20.45 60.6205 20.19 61.0205 19.67C61.4405 19.15 61.7705 18.47 62.0105 17.63H63.2705C62.5305 19.79 61.6105 21.26 60.5105 22.04C59.4305 22.8 58.3405 23.18 57.2405 23.18C56.4005 23.18 55.7205 22.95 55.2005 22.49C54.7005 22.01 54.4005 21.32 54.3005 20.42C53.7205 21.24 53.0705 21.91 52.3505 22.43C51.6505 22.93 50.8105 23.18 49.8305 23.18ZM51.7805 20.27C52.2805 20.27 52.7705 20.04 53.2505 19.58C53.7505 19.1 54.0905 18.45 54.2705 17.63L55.7105 10.85C55.7105 10.59 55.6105 10.34 55.4105 10.1C55.2105 9.84 54.9005 9.71 54.4805 9.71C53.6805 9.71 52.9605 10.18 52.3205 11.12C51.6805 12.04 51.1805 13.16 50.8205 14.48C50.4605 15.78 50.2805 16.93 50.2805 17.93C50.2805 18.93 50.4205 19.57 50.7005 19.85C51.0005 20.13 51.3605 20.27 51.7805 20.27ZM72.8515 23.18C71.6315 23.18 70.7315 22.86 70.1515 22.22C69.5915 21.56 69.3115 20.75 69.3115 19.79C69.3115 19.37 69.3615 18.9 69.4615 18.38C69.5615 17.84 69.6615 17.32 69.7615 16.82C69.8815 16.32 69.9615 16 70.0015 15.86C70.1615 15.16 70.3115 14.47 70.4515 13.79C70.5915 13.11 70.6615 12.56 70.6615 12.14C70.6615 11.12 70.3015 10.61 69.5815 10.61C69.0615 10.61 68.6015 10.87 68.2015 11.39C67.8015 11.89 67.4815 12.55 67.2415 13.37L65.2015 23H60.8815L64.0615 8H68.3815L68.0515 9.56C69.0515 8.44 70.2215 7.88 71.5615 7.88C72.5815 7.88 73.3915 8.16 73.9915 8.72C74.5915 9.28 74.8915 10.13 74.8915 11.27C74.8915 11.85 74.8215 12.5 74.6815 13.22C74.5415 13.92 74.3415 14.78 74.0815 15.8C73.9215 16.42 73.7715 17.03 73.6315 17.63C73.5115 18.21 73.4515 18.67 73.4515 19.01C73.4515 19.41 73.5415 19.72 73.7215 19.94C73.9015 20.16 74.2115 20.27 74.6515 20.27C75.2515 20.27 75.7315 20.06 76.0915 19.64C76.4515 19.2 76.8115 18.53 77.1715 17.63H78.4315C77.6915 19.83 76.8315 21.31 75.8515 22.07C74.8915 22.81 73.8915 23.18 72.8515 23.18ZM80.768 23.18C79.628 23.18 78.678 22.79 77.918 22.01C77.158 21.23 76.778 20.01 76.778 18.35C76.778 16.87 77.068 15.32 77.648 13.7C78.248 12.06 79.128 10.68 80.288 9.56C81.468 8.42 82.868 7.85 84.488 7.85C85.308 7.85 85.918 7.99 86.318 8.27C86.718 8.55 86.918 8.92 86.918 9.38V9.59L87.248 8H91.568L89.408 18.2C89.328 18.5 89.288 18.82 89.288 19.16C89.288 19.56 89.378 19.85 89.558 20.03C89.758 20.19 90.078 20.27 90.518 20.27C90.798 20.27 91.018 20.23 91.178 20.15C90.738 21.27 90.318 22.06 89.918 22.52C89.518 22.96 88.938 23.18 88.178 23.18C87.358 23.18 86.688 22.94 86.168 22.46C85.668 21.96 85.358 21.27 85.238 20.39C84.018 22.25 82.528 23.18 80.768 23.18ZM82.718 20.27C83.218 20.27 83.708 20.04 84.188 19.58C84.688 19.1 85.028 18.45 85.208 17.63L86.648 10.85C86.648 10.59 86.548 10.34 86.348 10.1C86.148 9.84 85.838 9.71 85.418 9.71C84.618 9.71 83.898 10.18 83.258 11.12C82.618 12.04 82.118 13.16 81.758 14.48C81.398 15.78 81.218 16.93 81.218 17.93C81.218 18.93 81.358 19.57 81.638 19.85C81.938 20.13 82.298 20.27 82.718 20.27Z" fill="white"/>
<path d="M13.08 61.51C11.52 61.51 10.74 60.84 10.74 59.5C10.74 59.06 10.8 58.56 10.92 58C11.06 57.42 11.25 56.68 11.49 55.78C11.77 54.84 11.98 54.04 12.12 53.38C12.26 52.72 12.33 52.13 12.33 51.61C12.33 50.25 11.73 49.57 10.53 49.57C10.19 49.57 9.86 49.61 9.54 49.69L7.14 61H2.82L7.17 40.6C5.83 41.16 4.79 42 4.05 43.12C3.33 44.24 2.97 45.59 2.97 47.17C2.97 47.91 3.04 48.43 3.18 48.73C3.32 49.01 3.39 49.17 3.39 49.21C2.31 49.21 1.5 48.99 0.96 48.55C0.44 48.09 0.18 47.34 0.18 46.3C0.18 45.02 0.7 43.78 1.74 42.58C2.8 41.36 4.15 40.38 5.79 39.64C7.43 38.88 9.07 38.5 10.71 38.5C10.99 38.5 11.39 38.52 11.91 38.56L9.96 47.74L13.05 43.6C15.51 40.28 16.75 38.63 16.77 38.65H19.92L11.58 48.25L12.63 48.22C13.99 48.22 14.95 48.51 15.51 49.09C16.07 49.65 16.35 50.43 16.35 51.43C16.35 52.01 16.28 52.63 16.14 53.29C16 53.93 15.8 54.73 15.54 55.69C15.38 56.31 15.23 56.92 15.09 57.52C14.95 58.12 14.88 58.62 14.88 59.02C14.88 59.48 14.98 59.89 15.18 60.25C15.4 60.61 15.69 60.86 16.05 61C14.83 61.34 13.84 61.51 13.08 61.51ZM28.8476 61.18C27.6276 61.18 26.7276 60.86 26.1476 60.22C25.5876 59.56 25.3076 58.75 25.3076 57.79C25.3076 57.37 25.3576 56.9 25.4576 56.38C25.5576 55.84 25.6576 55.32 25.7576 54.82C25.8776 54.32 25.9576 54 25.9976 53.86C26.1576 53.16 26.3076 52.47 26.4476 51.79C26.5876 51.11 26.6576 50.56 26.6576 50.14C26.6576 49.12 26.2976 48.61 25.5776 48.61C25.0576 48.61 24.5976 48.87 24.1976 49.39C23.7976 49.89 23.4776 50.55 23.2376 51.37L21.1976 61H16.8776L21.2276 40.6L25.6676 40L24.0476 47.56C25.0476 46.44 26.2176 45.88 27.5576 45.88C28.5776 45.88 29.3876 46.16 29.9876 46.72C30.5876 47.28 30.8876 48.13 30.8876 49.27C30.8876 49.85 30.8176 50.5 30.6776 51.22C30.5376 51.92 30.3376 52.78 30.0776 53.8C29.9176 54.42 29.7676 55.03 29.6276 55.63C29.5076 56.21 29.4476 56.67 29.4476 57.01C29.4476 57.41 29.5376 57.72 29.7176 57.94C29.8976 58.16 30.2076 58.27 30.6476 58.27C31.2476 58.27 31.7276 58.06 32.0876 57.64C32.4476 57.2 32.8076 56.53 33.1676 55.63H34.4276C33.6876 57.83 32.8276 59.31 31.8476 60.07C30.8876 60.81 29.8876 61.18 28.8476 61.18ZM36.7641 61.18C35.6241 61.18 34.6741 60.79 33.9141 60.01C33.1541 59.23 32.7741 58.01 32.7741 56.35C32.7741 54.87 33.0641 53.32 33.6441 51.7C34.2441 50.06 35.1241 48.68 36.2841 47.56C37.4641 46.42 38.8641 45.85 40.4841 45.85C41.3041 45.85 41.9141 45.99 42.3141 46.27C42.7141 46.55 42.9141 46.92 42.9141 47.38V47.59L43.2441 46H47.5641L45.4041 56.2C45.3241 56.5 45.2841 56.82 45.2841 57.16C45.2841 58.02 45.6941 58.45 46.5141 58.45C47.0741 58.45 47.5541 58.19 47.9541 57.67C48.3741 57.15 48.7041 56.47 48.9441 55.63H50.2041C49.4641 57.79 48.5441 59.26 47.4441 60.04C46.3641 60.8 45.2741 61.18 44.1741 61.18C43.3341 61.18 42.6541 60.95 42.1341 60.49C41.6341 60.01 41.3341 59.32 41.2341 58.42C40.6541 59.24 40.0041 59.91 39.2841 60.43C38.5841 60.93 37.7441 61.18 36.7641 61.18ZM38.7141 58.27C39.2141 58.27 39.7041 58.04 40.1841 57.58C40.6841 57.1 41.0241 56.45 41.2041 55.63L42.6441 48.85C42.6441 48.59 42.5441 48.34 42.3441 48.1C42.1441 47.84 41.8341 47.71 41.4141 47.71C40.6141 47.71 39.8941 48.18 39.2541 49.12C38.6141 50.04 38.1141 51.16 37.7541 52.48C37.3941 53.78 37.2141 54.93 37.2141 55.93C37.2141 56.93 37.3541 57.57 37.6341 57.85C37.9341 58.13 38.2941 58.27 38.7141 58.27ZM52.3751 61.18C51.2151 61.18 50.3051 60.89 49.6451 60.31C49.0051 59.71 48.6851 58.82 48.6851 57.64C48.6851 57.16 48.7351 56.68 48.8351 56.2L50.9951 46H55.3151L53.1551 56.2C53.0551 56.7 53.0051 57.06 53.0051 57.28C53.0051 57.94 53.3451 58.27 54.0251 58.27C54.9451 58.27 55.7951 57.69 56.5751 56.53C57.3751 55.37 58.0151 53.99 58.4951 52.39C58.9751 50.79 59.2151 49.41 59.2151 48.25C59.1751 48.35 59.0451 48.43 58.8251 48.49C58.6051 48.53 58.4151 48.55 58.2551 48.55C57.9151 48.55 57.6451 48.39 57.4451 48.07C57.2651 47.75 57.1751 47.4 57.1751 47.02C57.1751 46.54 57.3251 46.15 57.6251 45.85C57.9451 45.55 58.4151 45.4 59.0351 45.4C59.6951 45.4 60.1751 45.65 60.4751 46.15C60.7751 46.63 60.9251 47.25 60.9251 48.01C60.9251 49.81 60.6151 51.74 59.9951 53.8C59.3751 55.84 58.4251 57.58 57.1451 59.02C55.8651 60.46 54.2751 61.18 52.3751 61.18ZM63.417 46H67.737L67.347 47.86C68.027 47.26 68.637 46.8 69.177 46.48C69.737 46.16 70.337 46 70.977 46C71.617 46 72.117 46.22 72.477 46.66C72.857 47.1 73.047 47.63 73.047 48.25C73.047 48.83 72.857 49.34 72.477 49.78C72.097 50.22 71.567 50.44 70.887 50.44C70.447 50.44 70.147 50.34 69.987 50.14C69.847 49.92 69.737 49.61 69.657 49.21C69.597 48.95 69.537 48.76 69.477 48.64C69.417 48.52 69.307 48.46 69.147 48.46C68.727 48.46 68.367 48.55 68.067 48.73C67.787 48.89 67.417 49.18 66.957 49.6L64.557 61H60.237L63.417 46ZM77.0363 61.12C75.5563 61.12 74.3863 60.74 73.5263 59.98C72.6663 59.22 72.2362 58.02 72.2362 56.38C72.2362 55 72.5062 53.49 73.0463 51.85C73.5863 50.19 74.4663 48.76 75.6863 47.56C76.9063 46.34 78.4663 45.73 80.3662 45.73C82.7263 45.73 83.9963 47.08 84.1763 49.78C84.6163 49.68 85.0063 49.44 85.3463 49.06C85.6863 48.66 86.0063 48.21 86.3063 47.71H87.2663C86.7263 48.79 86.2463 49.64 85.8263 50.26C85.4063 50.86 84.8563 51.35 84.1763 51.73C84.0563 53.61 83.6663 55.26 83.0063 56.68C82.3663 58.1 81.5263 59.2 80.4863 59.98C79.4463 60.74 78.2963 61.12 77.0363 61.12ZM78.2363 58.42C78.9763 58.42 79.6663 57.82 80.3063 56.62C80.9463 55.42 81.3863 53.94 81.6263 52.18C81.1463 52 80.9063 51.55 80.9063 50.83C80.9063 50.05 81.1863 49.53 81.7463 49.27C81.7063 48.63 81.5963 48.19 81.4163 47.95C81.2563 47.69 80.9863 47.56 80.6063 47.56C79.9463 47.56 79.3163 48.04 78.7163 49C78.1163 49.94 77.6263 51.09 77.2463 52.45C76.8863 53.79 76.7063 54.97 76.7063 55.99C76.7063 56.95 76.8163 57.6 77.0363 57.94C77.2563 58.26 77.6563 58.42 78.2363 58.42Z" fill="#FE520B"/>
</svg>
