<svg width="21" height="21" viewBox="0 0 21 21" fill="none" xmlns="http://www.w3.org/2000/svg">
<path fill-rule="evenodd" clip-rule="evenodd" d="M10.4978 11.3173C10.0479 11.3173 9.67826 10.9521 9.67826 10.4978V3.91495C9.67826 3.46066 10.0479 3.09544 10.4978 3.09544C10.9521 3.09544 11.3173 3.46066 11.3173 3.91495V9.67826H15.1476C15.6019 9.67826 15.9671 10.0479 15.9671 10.4978C15.9671 10.9521 15.6019 11.3173 15.1476 11.3173H10.4978ZM10.4978 0C13.3972 0 16.025 1.17582 17.9224 3.07317C19.8242 4.97497 21 7.5983 21 10.4978C21 13.3972 19.8242 16.025 17.9224 17.9224C16.025 19.8242 13.3972 21 10.4978 21C7.5983 21 4.97497 19.8242 3.07317 17.9224C1.17582 16.025 0 13.3972 0 10.4978C0 7.5983 1.17582 4.97497 3.07317 3.07317C4.97497 1.17582 7.5983 0 10.4978 0ZM16.7644 4.23563C15.161 2.63224 12.9474 1.63902 10.4978 1.63902C8.0526 1.63902 5.83902 2.63224 4.23563 4.23563C2.63224 5.83902 1.63902 8.0526 1.63902 10.4978C1.63902 12.9474 2.63224 15.161 4.23563 16.7644C5.83902 18.3678 8.0526 19.361 10.4978 19.361C12.9474 19.361 15.161 18.3678 16.7644 16.7644C18.3678 15.161 19.361 12.9474 19.361 10.4978C19.361 8.0526 18.3678 5.83902 16.7644 4.23563Z" fill="#FE520B"/>
</svg>
